<svg height="20" viewBox="0 0 20 20" width="20" xmlns="http://www.w3.org/2000/svg">
    <g id="chat_1_" transform="translate(-3.366)">
        <g id="Group_106" transform="translate(3.366)">
            <path
                d="M13.412,0H13.38A9.935,9.935,0,0,0,3.366,9.833a9.656,9.656,0,0,0,2.177,6.093L4.086,19.253a.53.53,0,0,0,.284.7.564.564,0,0,0,.311.038l5.342-.922a9.787,9.787,0,0,0,3.329.568A9.935,9.935,0,0,0,23.366,9.806,9.877,9.877,0,0,0,13.412,0ZM9.985,7.856h2.947a.536.536,0,1,1,0,1.072H9.985a.536.536,0,1,1,0-1.072Zm6.767,3.751H9.985a.536.536,0,1,1,0-1.072h6.767a.536.536,0,1,1,0,1.072Z"
                fill="#fff" id="Path_418" transform="translate(-3.366)" />
        </g>
    </g>
</svg>
