<svg height="20" viewBox="0 0 20 20" width="20" xmlns="http://www.w3.org/2000/svg">
    <g id="global" transform="translate(0 -0.256)">
        <g id="Group_126" transform="translate(10.925 0.256)">
            <g id="Group_125" transform="translate(0 0)">
                <path
                    d="M260.113.256a20.233,20.233,0,0,1,2.633,5.368,11.6,11.6,0,0,0,3.948-1.383l.358-.222A10.014,10.014,0,0,0,260.113.256Z"
                    fill="#ea1e37" id="Path_425" transform="translate(-260.113 -0.256)" />
            </g>
        </g>
        <g id="Group_128" transform="translate(7.154 7.243)">
            <g id="Group_127">
                <path
                    d="M175.681,166.4a22.027,22.027,0,0,1-5.018,0,13.692,13.692,0,0,0-.337,2.294h5.692A13.692,13.692,0,0,0,175.681,166.4Z"
                    fill="#ea1e37" id="Path_426" transform="translate(-170.326 -166.4)" />
            </g>
        </g>
        <g id="Group_130" transform="translate(7.885 14.568)">
            <g id="Group_129">
                <path
                    d="M189.848,340.48a20.8,20.8,0,0,0-2.115.11,19.24,19.24,0,0,0,2.115,4.379,19.243,19.243,0,0,0,2.115-4.379A20.8,20.8,0,0,0,189.848,340.48Z"
                    fill="#ea1e37" id="Path_427" transform="translate(-187.733 -340.48)" />
            </g>
        </g>
        <g id="Group_132" transform="translate(13.932 10.977)">
            <g id="Group_131">
                <path
                    d="M332.032,255.147a15.18,15.18,0,0,1-.342,2.513,12.831,12.831,0,0,1,4.333,1.557l.405.252a9.969,9.969,0,0,0,1.33-4.323Z"
                    fill="#ea1e37" id="Path_428" transform="translate(-331.69 -255.147)" />
            </g>
        </g>
        <g id="Group_134" transform="translate(13.932 5.213)">
            <g id="Group_133">
                <path
                    d="M336.428,118.118l-.405.252a12.832,12.832,0,0,1-4.333,1.561,15.184,15.184,0,0,1,.342,2.509h5.726A9.969,9.969,0,0,0,336.428,118.118Z"
                    fill="#ea1e37" id="Path_429" transform="translate(-331.69 -118.118)" />
            </g>
        </g>
        <g id="Group_136" transform="translate(7.154 10.975)">
            <g id="Group_135">
                <path
                    d="M170.325,255.147a13.685,13.685,0,0,0,.338,2.294,22.109,22.109,0,0,1,5.018,0,13.689,13.689,0,0,0,.335-2.294Z"
                    fill="#ea1e37" id="Path_430" transform="translate(-170.325 -255.147)" />
            </g>
        </g>
        <g id="Group_138" transform="translate(0 5.213)">
            <g id="Group_137">
                <path
                    d="M1.735,118.37l-.405-.252A9.97,9.97,0,0,0,0,122.44H5.726a15.184,15.184,0,0,1,.342-2.509A12.832,12.832,0,0,1,1.735,118.37Z"
                    fill="#ea1e37" id="Path_431" transform="translate(0 -118.118)" />
            </g>
        </g>
        <g id="Group_140" transform="translate(2.136 14.888)">
            <g id="Group_139">
                <path
                    d="M55.148,348.109a11.612,11.612,0,0,0-3.948,1.382l-.358.223a10.011,10.011,0,0,0,6.939,3.763A20.217,20.217,0,0,1,55.148,348.109Z"
                    fill="#ea1e37" id="Path_432" transform="translate(-50.842 -348.109)" />
            </g>
        </g>
        <g id="Group_142" transform="translate(7.885 1.456)">
            <g id="Group_141">
                <path
                    d="M189.848,28.826a19.251,19.251,0,0,0-2.115,4.378,20.444,20.444,0,0,0,4.229,0A19.251,19.251,0,0,0,189.848,28.826Z"
                    fill="#ea1e37" id="Path_433" transform="translate(-187.733 -28.826)" />
            </g>
        </g>
        <g id="Group_144" transform="translate(10.923 14.888)">
            <g id="Group_143">
                <path
                    d="M266.645,349.49a11.613,11.613,0,0,0-3.948-1.382,20.215,20.215,0,0,1-2.635,5.368A10.011,10.011,0,0,0,267,349.713Z"
                    fill="#ea1e37" id="Path_434" transform="translate(-260.062 -348.108)" />
            </g>
        </g>
        <g id="Group_146" transform="translate(2.138 0.256)">
            <g id="Group_145" transform="translate(0 0)">
                <path
                    d="M50.893,4.02l.356.222A11.6,11.6,0,0,0,55.2,5.625,20.231,20.231,0,0,1,57.832.257,10.014,10.014,0,0,0,50.893,4.02Z"
                    fill="#ea1e37" id="Path_435" transform="translate(-50.893 -0.257)" />
            </g>
        </g>
        <g id="Group_148" transform="translate(0 10.977)">
            <g id="Group_147">
                <path
                    d="M5.726,255.147H0a9.969,9.969,0,0,0,1.33,4.323l.405-.252a12.832,12.832,0,0,1,4.333-1.557A15.174,15.174,0,0,1,5.726,255.147Z"
                    fill="#ea1e37" id="Path_436" transform="translate(0 -255.147)" />
            </g>
        </g>
    </g>
</svg>
