<svg height="20" viewBox="0 0 23.333 20" width="23.333" xmlns="http://www.w3.org/2000/svg">
    <g id="Icon_ionic-md-images" transform="translate(-2.252 -4.502)">
        <path
            d="M24.417,8.469l-4.3-.208-.25-2.8a1.075,1.075,0,0,0-1.193-.953L3.266,5.771A1.063,1.063,0,0,0,2.256,6.9l1.1,12.281a1.078,1.078,0,0,0,1.193.953l.781-.062-.125,2.385a1.183,1.183,0,0,0,1.167,1.224l17.193.818a1.2,1.2,0,0,0,1.292-1.1l.724-13.714A1.177,1.177,0,0,0,24.417,8.469ZM5.933,8.745l-.37,7.021-.911,1.286L3.813,7.782V7.73a.564.564,0,0,1,.5-.49L17.907,6.126a.5.5,0,0,1,.547.411c0,.01.016.01.016.021s.016.01.016.021l.141,1.6L7.219,7.636A1.2,1.2,0,0,0,5.933,8.745Zm17.4,12.339L18.912,15.9l-1.948,1.786-3.6-4.208L6.969,20.287l.542-10.37V9.9a.6.6,0,0,1,.62-.469l15.167.729a.553.553,0,0,1,.542.531c0,.01.016.016.016.026Z"
            fill="#ea1e37" id="Path_438" />
        <path d="M27,18a2.25,2.25,0,1,0-2.25-2.25A2.257,2.257,0,0,0,27,18Z" data-name="Path 439"
            fill="#ea1e37" id="Path_439" transform="translate(-8.166 -2.799)" />
    </g>
</svg>
