<svg height="20" viewBox="0 0 17.646 20" width="17.646" xmlns="http://www.w3.org/2000/svg">
    <g id="megaphone" transform="translate(-30.136)">
        <g id="Group_4629" transform="translate(37.403 0.16)">
            <g id="Group_4628" transform="translate(0)">
                <path
                    d="M225.964,12.244l-7.8-7.8A1.172,1.172,0,1,0,216.506,6.1l7.8,7.8a1.172,1.172,0,0,0,1.657-1.657Z"
                    fill="#ea1e37" id="Path_456" transform="translate(-216.163 -4.1)" />
            </g>
        </g>
        <g id="Group_4631" transform="translate(34.33 3.238)">
            <g id="Group_4630" transform="translate(0)">
                <path
                    d="M140.331,82.9l-.059.294a12.6,12.6,0,0,1-2.778,5.627l4.244,4.244a12.554,12.554,0,0,1,5.6-2.805l.295-.059Z"
                    fill="#ea1e37" id="Path_457" transform="translate(-137.494 -82.905)" />
            </g>
        </g>
        <g id="Group_4633" transform="translate(30.136 10.039)">
            <g id="Group_4632" transform="translate(0)">
                <path
                    d="M33.551,256.989l-2.9,2.9a1.758,1.758,0,0,0,0,2.486l1.657,1.657a1.758,1.758,0,0,0,2.486,0l2.9-2.9Zm.414,4.558a.586.586,0,0,1-.829-.829l.829-.829a.586.586,0,1,1,.829.829Z"
                    fill="#ea1e37" id="Path_458" transform="translate(-30.136 -256.989)" />
            </g>
        </g>
        <g id="Group_4635" transform="translate(36.451 13.519)">
            <g id="Group_4634" transform="translate(0)">
                <path
                    d="M195.5,349.95l.8-.8a1.756,1.756,0,0,0,0-2.486l-.592-.592a11.1,11.1,0,0,0-.944.714l.707.708a.585.585,0,0,1,0,.828l-.81.81-1.191-1.154-1.657,1.657,2.658,2.576a1.172,1.172,0,0,0,1.657-1.658Z"
                    fill="#ea1e37" id="Path_459" transform="translate(-191.813 -346.075)" />
            </g>
        </g>
        <g id="Group_4637" transform="translate(41.922)">
            <g id="Group_4636">
                <path
                    d="M332.45,0a.586.586,0,0,0-.586.586V1.758a.586.586,0,1,0,1.172,0V.586A.586.586,0,0,0,332.45,0Z"
                    fill="#ea1e37" id="Path_460" transform="translate(-331.864)" />
            </g>
        </g>
        <g id="Group_4639" transform="translate(45.438 4.688)">
            <g id="Group_4638" transform="translate(0)">
                <path d="M423.622,120H422.45a.586.586,0,0,0,0,1.172h1.172a.586.586,0,0,0,0-1.172Z"
                    fill="#ea1e37" id="Path_461" transform="translate(-421.864 -120)" />
            </g>
        </g>
        <g id="Group_4641" transform="translate(44.266 1.172)">
            <g id="Group_4640" transform="translate(0)">
                <path
                    d="M394.036,30.171a.586.586,0,0,0-.829,0l-1.172,1.172a.586.586,0,0,0,.829.829L394.036,31A.586.586,0,0,0,394.036,30.171Z"
                    fill="#ea1e37" id="Path_462" transform="translate(-391.864 -30)" />
            </g>
        </g>
    </g>
</svg>
