<svg height="19.289" viewBox="0 0 20 19.289" width="20" xmlns="http://www.w3.org/2000/svg">
    <g id="telephone" transform="translate(0 -9.1)">
        <g id="Group_120" transform="translate(0 9.1)">
            <g id="Group_119" transform="translate(0 0)">
                <path
                    d="M19.234,12.828a8.692,8.692,0,0,0-3.784-2.684,14.807,14.807,0,0,0-10.885-.016A8.689,8.689,0,0,0,.772,12.8a3.431,3.431,0,0,0-.617,3.154A1.653,1.653,0,0,0,1.74,17.1l2.5,0h0a1.669,1.669,0,0,0,1.284-.6,1.642,1.642,0,0,0,.358-1.35q0-.021-.009-.042L5.741,14.6A10.192,10.192,0,0,1,10,13.59a10.463,10.463,0,0,1,4.259,1.028l-.134.508q-.006.022-.01.043a1.642,1.642,0,0,0,.354,1.351,1.669,1.669,0,0,0,1.285.6l2.5,0h0a1.653,1.653,0,0,0,1.585-1.138A3.434,3.434,0,0,0,19.234,12.828Z"
                    fill="#ea1e37" id="Path_422" transform="translate(0 -9.1)" />
            </g>
        </g>
        <g id="Group_122" transform="translate(2.087 16.123)">
            <g id="Group_121">
                <path
                    d="M66.993,192.441l-1.863-1.956a.6.6,0,0,0-.432-.185h-1.2v-.813a.6.6,0,1,0-1.194,0v.813H60.39v-.813a.6.6,0,1,0-1.194,0v.813h-1.2a.6.6,0,0,0-.432.185L55.7,192.441a8.176,8.176,0,0,0-2.265,5.663v2.455a.6.6,0,0,0,.6.6H68.661a.6.6,0,0,0,.6-.6V198.1A8.176,8.176,0,0,0,66.993,192.441Zm-5.648,6.533a3.123,3.123,0,1,1,3.123-3.123A3.127,3.127,0,0,1,61.345,198.975Z"
                    fill="#ea1e37" id="Path_423" transform="translate(-53.432 -188.89)" />
            </g>
        </g>
        <g id="Group_124" transform="translate(8.071 21.154)">
            <g id="Group_123">
                <path
                    d="M208.533,317.691a1.93,1.93,0,1,0,1.93,1.93A1.932,1.932,0,0,0,208.533,317.691Z"
                    fill="#ea1e37" id="Path_424" transform="translate(-206.603 -317.691)" />
            </g>
        </g>
    </g>
</svg>
