<svg height="18.333" viewBox="0 0 20 18.333" width="20" xmlns="http://www.w3.org/2000/svg">
    <g id="title_1_" transform="translate(0 -1)">
        <g id="Group_4653" transform="translate(3.333 7.667)">
            <path
                d="M10.667,9H4.833A.834.834,0,0,0,4,9.833v1.25a.833.833,0,0,0,1.667,0v-.417h1.25v5H6.5a.833.833,0,1,0,0,1.667H9a.833.833,0,1,0,0-1.667H8.583v-5h1.25v.417a.833.833,0,0,0,1.667,0V9.833A.834.834,0,0,0,10.667,9Z"
                fill="#ea1e37" id="Path_464" transform="translate(-4 -9)" />
        </g>
        <g id="Group_4654" transform="translate(12.5 7.667)">
            <path d="M18.333,10.667h-2.5a.833.833,0,1,1,0-1.667h2.5a.833.833,0,1,1,0,1.667Z"
                fill="#ea1e37" id="Path_465" transform="translate(-15 -9)" />
        </g>
        <g id="Group_4655" transform="translate(12.5 11)">
            <path d="M18.333,14.667h-2.5a.833.833,0,0,1,0-1.667h2.5a.833.833,0,1,1,0,1.667Z"
                fill="#ea1e37" id="Path_466" transform="translate(-15 -13)" />
        </g>
        <g id="Group_4656" transform="translate(12.5 14.333)">
            <path d="M18.333,18.667h-2.5a.833.833,0,1,1,0-1.667h2.5a.833.833,0,1,1,0,1.667Z"
                fill="#ea1e37" id="Path_467" transform="translate(-15 -17)" />
        </g>
        <g id="Group_4657" transform="translate(0 1)">
            <path
                d="M17.5,1H2.5A2.5,2.5,0,0,0,0,3.5V16.833a2.5,2.5,0,0,0,2.5,2.5h15a2.5,2.5,0,0,0,2.5-2.5V3.5A2.5,2.5,0,0,0,17.5,1Zm0,16.667H2.5a.834.834,0,0,1-.833-.833V5.167H18.333V16.833A.834.834,0,0,1,17.5,17.667Z"
                fill="#ea1e37" id="Path_468" transform="translate(0 -1)" />
        </g>
    </g>
</svg>
