<svg xmlns:xlink="http://www.w3.org/1999/xlink" height="270" viewBox="0 0 275 270" width="275"
    xmlns="http://www.w3.org/2000/svg">
    <g id="undraw_going_offline_ihag" transform="translate(57 102.346)">
        <g id="Group_1" transform="translate(-57 120.681)">
            <rect fill="#141414" height="1.692" id="Rectangle_5" transform="translate(0 44.898)"
                width="275" />
            <g id="Group_3" transform="translate(215.785 0)">
                <path
                    d="M1009.446,634.92c7.366,7.9,7.747,19.521,7.747,19.521s-11.562-1.2-18.927-9.1-7.746-19.521-7.746-19.521S1002.079,627.016,1009.446,634.92Z"
                    fill="#ea1e37" id="Path_22" transform="translate(-990.519 -625.818)" />
                <path
                    d="M1054.131,649.647c-7.9,7.366-19.521,7.747-19.521,7.747s1.2-11.562,9.1-18.927,19.521-7.746,19.521-7.746S1062.037,642.282,1054.131,649.647Z"
                    fill="#ea1e37" id="Path_23" transform="translate(-1012.019 -628.208)" />
                <path
                    d="M1032.358,695.4h-29.072a2.974,2.974,0,0,1-2.674-1.673l-6.329-13.011a2.973,2.973,0,0,1,2.674-4.274h41.73a2.973,2.973,0,0,1,2.674,4.274l-6.329,13.011A2.973,2.973,0,0,1,1032.358,695.4Z"
                    fill="#141414" id="Path_24" transform="translate(-992.208 -650.506)" />
            </g>
            <g id="Group_2" transform="translate(10.219 26.204)">
                <path
                    d="M101.4,629.608a13.957,13.957,0,0,1,3.225,8.128,12.017,12.017,0,0,1-11.106-11.917A13.958,13.958,0,0,1,101.4,629.608Z"
                    fill="#ea1e37" id="Path_25" transform="translate(-92.336 -625.818)" />
                <path
                    d="M103.962,684.339h-12.1a1.238,1.238,0,0,1-1.113-.7l-2.635-5.417a1.238,1.238,0,0,1,1.113-1.78H106.6a1.238,1.238,0,0,1,1.113,1.78l-2.635,5.417A1.238,1.238,0,0,1,103.962,684.339Z"
                    fill="#141414" id="Path_26" transform="translate(-87.984 -665.646)" />
            </g>
        </g>
        <g id="Group_4" transform="translate(-53.652 -102.346)">
            <path
                d="M642.029,150.273h-1.491v-40.64A23.581,23.581,0,0,0,616.9,86.111H530.365a23.581,23.581,0,0,0-23.64,23.522V332.589a23.581,23.581,0,0,0,23.64,23.522H616.9a23.581,23.581,0,0,0,23.64-23.521V179.2h1.491Z"
                fill="#141414" id="Path_1" transform="translate(-440.977 -86.111)" />
            <path
                d="M628.824,102.606h-11.3a8.306,8.306,0,0,1-.8,7.8,8.4,8.4,0,0,1-6.961,3.69H560.189a8.4,8.4,0,0,1-6.96-3.689,8.306,8.306,0,0,1-.805-7.805h-10.55a17.608,17.608,0,0,0-17.654,17.561V342.744a17.608,17.608,0,0,0,17.654,17.561h86.951a17.608,17.608,0,0,0,17.654-17.562h0V120.168a17.608,17.608,0,0,0-17.654-17.562Z"
                fill="#fff" id="Path_2" transform="translate(-451.948 -96.456)" />
            <rect fill="#e6e6e6" height="169.712" id="Rectangle_1" transform="translate(83.652 50)"
                width="100.136" />
            <path
                d="M455.969,314.391c4.59,3.825-4.59,15.726-4.59,15.726s21.8.85,20.082.85-3.156-18.064-3.156-18.064S451.379,310.566,455.969,314.391Z"
                fill="#ffb8b8" id="Path_3" transform="translate(-406.267 -228.352)" />
            <path
                d="M390.622,443.524l19.761,7.084,10.813,4.474s7.084,19.388,10.44,27.964-7.457,22.371-7.457,22.371,1.119,4.1,0,5.966a20.267,20.267,0,0,0-1.491,2.983c-.373.746-4.474.373-8.948,0s-.373-7.457-.373-7.457,3.729-14.914,4.1-15.287c.348-.348,1.347-2.973.263-3.926a9.673,9.673,0,0,1-2.437-3.031,11.221,11.221,0,0,0-1.927-2.737s-11.817-17.427-17.654-21.391-19.388.746-19.388.746,6.468,9.832,6.468,12.069.373,3.356,1.491,4.1.746,2.237.746,3.729a9.133,9.133,0,0,0,2.983,5.966c1.864,1.491,2.237,2.983,1.864,5.966s-10.44,1.491-10.44,1.491l-4.847-9.321a163.838,163.838,0,0,1-12.3-24.608c-2.424-6.339.093-10.626,3.216-13.329a15.432,15.432,0,0,1,10.82-3.641l17.527.8-12.547-3.59Z"
                fill="#141414" id="Path_4" transform="translate(-349.784 -309.532)" />
            <path
                d="M614.915,318.571l21.253-9.694s7.457-12.677,2.983-14.168-8.2,11.186-8.2,11.186l-15.287,2.983Z"
                fill="#ffb8b8" id="Path_5" transform="translate(-508.828 -217.282)" />
            <path
                d="M352.209,370.643s-10.813,9.694-11.186,10.813-7.084,4.1-10.067-1.119,6.711-4.847,6.711-4.847l6.711-8.576Z"
                fill="#ffb8b8" id="Path_6" transform="translate(-330.386 -262.772)" />
            <path
                d="M359.567,338.966l11.558,8.576,19.015-6.711c-3.534,11.066-.765,22.785-12.374,29.573l44,14.914c-3.894-15.678,2.256-28.657,7.527-44.487,8.35-4.3,18.823-3.285,30.2,0V325.544l-46.234,2.61L406.1,332l-8.505-2.354C385.286,327.649,369.9,332.011,359.567,338.966Z"
                fill="#ea1e37" id="Path_7" transform="translate(-348.687 -236.842)" />
            <path
                d="M407.566,579.357c1.119.746,2.983,7.83,3.356,10.44s-2.983,3.729-4.847,4.1-1.491,1.491-2.61,2.61-5.22,1.491-10.813.373,2.61-8.2,3.356-8.576,2.983-8.948,2.983-8.948S406.447,578.611,407.566,579.357Z"
                fill="#141414" id="Path_8" transform="translate(-368.219 -396.225)" />
            <path
                d="M503.542,632.405l2.983,7.83,2.82,4.23a9.58,9.58,0,0,1,1.354,7.8,5.286,5.286,0,0,1-3.429,4.006c-4.847,1.492-7.83-7.83-7.83-7.83s-2.61-5.22-4.474-10.067,1.491-7.457,1.491-7.457Z"
                fill="#141414" id="Path_9" transform="translate(-433.249 -428.902)" />
            <circle cx="8.947" cy="8.947" fill="#ffb8b8" id="Ellipse_9" r="8.947"
                transform="translate(47.046 72.936)" />
            <path
                d="M472.4,282.379a8.511,8.511,0,0,0-.577-6.915c-1.149-2.038-3.362-3.949-7.617-4.056-9.283-.235-13.306,6.764-12.783,8.817s2.394,6.936,2.394,6.936-1.16-4.7,1.16-5.173,11.314-2.351,13.925-.235a5.307,5.307,0,0,1,2.031,4.938Z"
                fill="#2f2e41" id="Path_10" transform="translate(-406.267 -202.681)" />
            <circle cx="9.694" cy="9.694" fill="#e6e6e6" id="Ellipse_10" r="9.694"
                transform="translate(123.855 231.958)" />
            <rect fill="#ea1e37" height="19.577" id="Rectangle_4"
                transform="translate(118.511 69.324)" width="74.638" />
            <rect fill="#fff" height="3.84" id="Rectangle_6" transform="translate(127.994 77.174)"
                width="55.672" />
            <image height="24.656" id="WhatsApp_Image_2020-08-08_at_4.32.42_AM"
                transform="translate(103.652 123)" width="60"
                xlink:href="undraw_going_offline_ihag-image.png" />
        </g>
    </g>
</svg>
