<svg height="124" id="undraw_Login_v483" viewBox="0 0 93.69 124" width="93.69"
    xmlns="http://www.w3.org/2000/svg">
    <rect fill="#535461" height="116.422" id="Rectangle_46" transform="translate(0 3.024)"
        width="78.678" />
    <path d="M57.236,122.509,0,119.5V3.075L57.236.063Z" fill="#ea1e37" id="Path_440"
        transform="translate(0 -0.052)" />
    <circle cx="0.709" cy="0.709" fill="#535461" id="Ellipse_29" r="0.709"
        transform="translate(51.743 66.107)" />
    <path d="M291.438,377.66l.491.851.491.851h-1.965l.491-.851Z" fill="#535461" id="Path_441"
        transform="translate(-238.986 -310.738)" />
    <path d="M320.723,122.509l-3.506-.011L317.356.063h3.367Z" fill="#ea1e37" id="Path_442"
        transform="translate(-261.006 -0.052)" />
    <g id="Group_4624" opacity="0.1" transform="translate(56.211)">
        <path d="M320.761,122.446h-3.544L317.394,0h3.367Z" fill="#fff" id="Path_443"
            transform="translate(-317.217)" />
    </g>
    <circle cx="2.304" cy="2.304" id="Ellipse_30" opacity="0.1" r="2.304"
        transform="translate(50.148 59.374)" />
    <circle cx="2.304" cy="2.304" fill="#535461" id="Ellipse_31" r="2.304"
        transform="translate(50.148 59.019)" />
    <line fill="none" id="Line_4" opacity="0.1" stroke="#000" stroke-miterlimit="10"
        stroke-width="2" transform="translate(9.36 2.854)" y2="117.139" />
    <line fill="none" id="Line_5" opacity="0.1" stroke="#000" stroke-miterlimit="10"
        stroke-width="2" transform="translate(19.46 2.146)" y2="118.202" />
    <line fill="none" id="Line_6" opacity="0.1" stroke="#000" stroke-miterlimit="10"
        stroke-width="2" transform="translate(29.561 1.614)" y2="119.415" />
    <line fill="none" id="Line_7" opacity="0.1" stroke="#000" stroke-miterlimit="10"
        stroke-width="2" transform="translate(39.661 1.082)" y2="120.683" />
    <line fill="none" id="Line_8" opacity="0.1" stroke="#000" stroke-miterlimit="10"
        stroke-width="2" transform="translate(49.762 0.551)" y2="121.364" />
    <ellipse cx="6.999" cy="6.556" fill="#2f2e41" id="Ellipse_32" rx="6.999" ry="6.556"
        transform="translate(75.083 10.335)" />
    <path d="M647.624,425.939l-1.772,2.481s-8.506,1.772-5.316,4.43,7.8-2.481,7.8-2.481l2.481-3.19Z"
        fill="#ffb8b8" id="Path_444" transform="translate(-585.919 -368.203)" />
    <path
        d="M688.312,266.939s-2.3,0-2.835,3.19-1.063,13.822-1.063,13.822-7.442,9.746-6.2,10.987,2.658,3.544,3.544,3.19,8.506-10.809,8.506-10.809Z"
        fill="#ea1e37" id="Path_445" transform="translate(-617.393 -237.378)" />
    <path
        d="M688.312,266.939s-2.3,0-2.835,3.19-1.063,13.822-1.063,13.822-7.442,9.746-6.2,10.987,2.658,3.544,3.544,3.19,8.506-10.809,8.506-10.809Z"
        id="Path_446" opacity="0.1" transform="translate(-617.393 -237.378)" />
    <path
        d="M758.054,215.939s-.177,6.911-2.3,7.265-1.418,2.658-1.418,2.658,6.911,4.076,11.518,0l.886-2.126s-3.19-2.3-1.772-5.493Z"
        fill="#ffb8b8" id="Path_447" transform="translate(-680.046 -195.415)" />
    <path
        d="M674.372,455.939s-10.455,19.492-6.556,25.517,9.746,18.429,10.632,18.429,5.848-2.481,5.493-4.076-5.67-13.467-7.088-14.531-.709-3.9-.532-4.076,6.025-9.569,6.025-9.569-.177,14.885.532,17.189-.177,18.783.709,19.492,4.962,1.949,5.67.886,2.835-17.189,1.418-20.91l2.658-25.517Z"
        fill="#2f2e41" id="Path_448" transform="translate(-608.237 -392.887)" />
    <path
        d="M725.969,722.939l-4.43,8.151s-6.379,4.607-1.949,5.316a10.462,10.462,0,0,0,7.088-1.063l3.9-2.835v-8.151Z"
        fill="#2f2e41" id="Path_449" transform="translate(-650.266 -612.574)" />
    <path
        d="M728.859,682.559l2.3,5.493s.886,2.3,0,2.835-3.367,3.721-1.772,4.076a5.184,5.184,0,0,0,.974.1,9.846,9.846,0,0,0,7.159-2.913l1.437-1.437s-4.921-11.332-4.853-11.248S728.859,682.559,728.859,682.559Z"
        fill="#2f2e41" id="Path_450" transform="translate(-659.18 -576.801)" />
    <circle cx="6.025" cy="6.025" fill="#ffb8b8" id="Ellipse_33" r="6.025"
        transform="translate(76.412 12.727)" />
    <path
        d="M724.865,253.388,723,255.249s-5.67,2.126-8.329,0a17.846,17.846,0,0,1,.975-1.861c0,.177-7.708,1.329-8.417,4.519s.532,8.683.532,8.683-4.962,23.391-3.012,23.922,20.2,4.962,20.024,1.595,1.418-17.189,1.418-17.189l6.2-11.872s-.886-3.9-3.012-5.139S724.865,253.388,724.865,253.388Z"
        fill="#ea1e37" id="Path_451" transform="translate(-638.972 -226.219)" />
    <path
        d="M739.249,448.939l-2.3,1.418s-8.86,6.025-4.253,7.088,7.265-4.253,7.265-4.253l1.772-2.126Z"
        fill="#ffb8b8" id="Path_452" transform="translate(-661.242 -387.127)" />
    <path
        d="M779.468,301.939l1.595,1.595s1.063,14.885-1.063,17.9-11.872,11.164-12.4,10.632-3.9-3.19-3.19-3.544,10.133-10.2,10.133-10.2L773.8,304.6Z"
        id="Path_453" opacity="0.1" transform="translate(-688.348 -266.176)" />
    <path
        d="M783.468,298.939l1.595,1.595s1.063,14.885-1.063,17.9-11.872,11.164-12.4,10.632-3.9-3.19-3.19-3.544,10.133-10.2,10.133-10.2L777.8,301.6Z"
        fill="#ea1e37" id="Path_454" transform="translate(-691.639 -263.707)" />
    <path
        d="M759.565,155.246a6.155,6.155,0,0,0-4.841.838l1.49.372s-2.234.186-2.513,3.165h1.024s-.652,2.607,0,3.351l.419-.791,1.21,2.42.279-1.21.559.186.372-1.955s.931,1.4,1.676,1.489V161.9s2.048,2.327,2.7,2.234l-.931-1.3,1.3.279-.559-.931,3.351.931-.745-.931,2.327.745,1.117.465s1.583-3.631-.652-6.144S761.66,154.175,759.565,155.246Z"
        fill="#2f2e41" id="Path_455" transform="translate(-679.62 -145.052)" />
</svg>
